<svg version="1.1" id="Layer_1" xmlns="http://www.w3.org/2000/svg" xmlns:xlink="http://www.w3.org/1999/xlink" x="0px" y="0px"
	 width="100%" viewBox="0 0 1920 1080" enable-background="new 0 0 1920 1080" xml:space="preserve">
<path fill="#000000" opacity="1.000000" stroke="none" 
	d="
M1362.000000,1081.000000 
	C908.000061,1081.000000 454.500153,1081.000000 1.000183,1081.000000 
	C1.000122,721.000122 1.000122,361.000305 1.000061,1.000218 
	C1.999854,1.000000 2.999708,1.000000 3.999563,1.000000 
	C642.999451,1.000000 1281.999390,1.000000 1920.999512,1.000000 
	C1920.999634,360.999664 1920.999634,720.999329 1920.999756,1080.999512 
	C1734.833374,1081.000000 1548.666626,1081.000000 1362.000000,1081.000000 
M1238.776489,700.700073 
	C1238.959961,696.252075 1239.371216,691.798462 1239.260986,687.357788 
	C1239.156616,683.147888 1238.505737,678.951538 1238.039917,673.862793 
	C1238.060059,670.867981 1239.124634,667.327698 1237.900024,664.983032 
	C1234.529297,658.529419 1238.009521,652.529541 1239.493286,647.236023 
	C1242.336182,637.093567 1247.353027,627.463379 1252.222900,618.009705 
	C1258.879639,605.087463 1265.713013,592.197632 1273.420776,579.888916 
	C1285.917236,559.933044 1301.211792,542.079407 1319.597778,527.390015 
	C1337.930664,512.743225 1357.328613,499.435608 1376.103638,485.333282 
	C1386.123169,477.807404 1396.154907,470.233398 1405.577637,461.991180 
	C1422.740845,446.978149 1435.804810,428.630890 1445.683228,408.206696 
	C1450.086060,399.103851 1453.421143,389.335358 1456.005981,379.542999 
	C1458.777344,369.044006 1460.908447,358.233307 1461.860718,347.430084 
	C1463.311646,330.971130 1461.692993,314.571167 1456.502563,298.763092 
	C1452.892822,287.769165 1449.870361,276.373260 1444.604736,266.180176 
	C1436.286743,250.077988 1426.452637,234.744629 1416.945557,219.279312 
	C1413.929565,214.373047 1410.338379,209.627258 1406.163330,205.711151 
	C1404.184814,203.855270 1400.193970,203.639282 1397.157959,203.761078 
	C1396.369263,203.792725 1394.739258,208.142899 1395.228149,210.069809 
	C1396.803101,216.274628 1398.753052,222.465652 1401.337158,228.318192 
	C1410.471924,249.007233 1413.089966,270.686890 1411.989502,293.000610 
	C1411.989502,293.000610 1412.008423,292.986755 1411.430664,293.427948 
	C1411.519165,295.538208 1412.277588,297.904877 1411.584351,299.715851 
	C1407.894409,309.354309 1405.994019,319.457550 1400.764282,328.785675 
	C1392.082153,344.271790 1380.284546,356.872406 1367.775513,368.861237 
	C1359.357422,376.929230 1349.621582,383.654388 1340.270874,390.709290 
	C1328.127686,399.871094 1315.871582,408.889984 1303.489990,417.726562 
	C1295.680176,423.300476 1287.227417,428.007080 1279.639160,433.850983 
	C1266.805908,443.734192 1253.993164,453.728302 1241.991333,464.582031 
	C1231.465942,474.100555 1221.579956,484.445160 1212.318115,495.205170 
	C1204.566284,504.210785 1197.959106,514.231995 1191.276978,524.095947 
	C1190.240845,525.625610 1190.610840,529.560425 1191.888550,530.937683 
	C1196.035889,535.408386 1200.792358,539.348694 1205.544922,543.209412 
	C1208.194946,545.362061 1211.148071,546.913635 1214.187744,543.220398 
	C1223.429565,531.991455 1233.086304,521.092834 1242.054199,509.652374 
	C1254.257812,494.084137 1270.043823,482.351776 1284.599121,469.354767 
	C1292.934204,461.912048 1302.919678,456.331665 1312.067627,449.781036 
	C1319.601196,444.386353 1326.920410,438.691711 1334.474365,433.326782 
	C1341.057007,428.651764 1347.907104,424.354309 1354.512939,419.710693 
	C1373.163940,406.599915 1390.740967,392.164337 1406.217651,375.403137 
	C1412.012939,369.127075 1416.695312,361.806335 1421.719604,354.842468 
	C1424.451660,351.055450 1426.836304,347.017731 1429.377686,343.093109 
	C1429.897339,343.332275 1430.416992,343.571442 1430.936646,343.810608 
	C1430.647583,345.826202 1430.218384,347.833099 1430.092163,349.858856 
	C1429.231567,363.676697 1426.088745,376.736786 1420.008545,389.383118 
	C1411.736572,406.588287 1401.211670,421.944977 1387.812988,435.483063 
	C1373.291138,450.156128 1356.470093,461.884705 1339.721558,473.728729 
	C1329.064941,481.264801 1317.914185,488.198456 1307.863647,496.469879 
	C1296.042603,506.198273 1284.461182,516.424866 1274.091309,527.650574 
	C1263.853638,538.733032 1254.744141,550.974731 1246.109009,563.382568 
	C1239.518921,572.852051 1234.167847,583.230591 1228.778564,593.474548 
	C1224.302979,601.981445 1220.574951,610.881714 1216.520142,619.598022 
	C1215.530884,619.325195 1215.020996,619.273804 1214.603760,619.049622 
	C1213.879395,618.660522 1213.114868,618.264160 1212.536255,617.697937 
	C1206.525757,611.815918 1198.637573,609.674438 1190.903687,608.575867 
	C1181.797607,607.282349 1172.551636,606.690125 1163.171997,608.740417 
	C1150.568604,611.495361 1141.077759,618.337524 1133.692993,628.360229 
	C1126.173828,638.565247 1121.822876,650.348450 1118.547363,662.472961 
	C1114.552246,677.262085 1107.794312,690.332947 1095.385254,699.697571 
	C1089.329346,704.267761 1082.979248,708.969727 1076.010986,711.680298 
	C1066.813721,715.257996 1056.889160,716.981323 1047.256348,719.419006 
	C1041.049561,720.989807 1040.497925,721.915100 1043.008301,727.730713 
	C1043.594849,729.089661 1044.180176,730.684937 1045.261597,731.557190 
	C1053.596924,738.280273 1061.298340,746.330566 1070.656006,751.114319 
	C1083.754150,757.810303 1095.740479,766.118103 1107.069702,774.981689 
	C1117.239258,782.937988 1125.454956,793.596497 1133.735962,803.715088 
	C1146.980347,819.898926 1157.672363,837.768799 1166.182129,856.910583 
	C1167.329224,859.490967 1168.501221,862.095276 1169.998413,864.476868 
	C1172.412109,868.316650 1175.329956,868.217834 1177.696655,864.407776 
	C1178.221069,863.563599 1178.517212,862.568726 1179.088379,861.763794 
	C1194.980591,839.363647 1207.419556,815.033813 1217.883057,789.776367 
	C1222.805542,777.894592 1225.493530,765.093811 1229.305420,752.743896 
	C1234.477539,735.986633 1237.787476,718.922974 1238.776489,700.700073 
M753.034790,325.022186 
	C753.034790,325.022186 753.137390,325.145691 753.748657,325.442139 
	C757.607971,326.545990 761.463806,327.662476 765.327271,328.751587 
	C781.988342,333.448425 798.647705,338.151825 815.315674,342.824219 
	C828.068115,346.399048 840.806702,349.747894 852.886230,355.596466 
	C865.501282,361.704346 878.867065,366.243286 891.770325,371.781006 
	C899.978638,375.303772 908.099731,379.104126 915.960083,383.336823 
	C921.150391,386.131714 925.794739,389.935425 930.707764,393.251526 
	C939.064026,398.891693 948.129211,403.718475 955.639404,410.317627 
	C966.040588,419.456909 975.827393,429.446106 984.882019,439.930908 
	C997.549622,454.599396 1009.478577,469.911011 1015.220215,489.011597 
	C1017.834534,497.708527 1022.078064,506.028595 1023.752747,514.866333 
	C1025.810913,525.727539 1026.798950,536.956482 1026.727417,548.016663 
	C1026.625854,563.727539 1025.199463,579.433594 1024.141479,595.128479 
	C1024.037476,596.673035 1022.556702,598.124756 1021.715027,599.619629 
	C1020.578857,598.540344 1019.304260,597.572876 1018.328430,596.364136 
	C1010.327759,586.454956 1002.943909,575.975220 994.264160,566.706970 
	C985.451355,557.296692 975.545654,548.874756 965.812500,540.370239 
	C953.004211,529.178955 939.975098,518.235168 926.857422,507.407196 
	C923.972290,505.025543 920.219604,503.726532 917.040100,501.661530 
	C913.056702,499.074341 909.392944,495.977692 905.330566,493.534271 
	C901.433716,491.190491 897.182495,489.441833 893.124695,487.358368 
	C885.819702,483.607605 878.631104,479.617401 871.224731,476.081482 
	C865.900635,473.539642 860.249023,471.693390 854.840332,469.316559 
	C849.547791,466.990875 844.564758,463.818604 839.114685,462.023834 
	C828.284973,458.457520 817.214600,455.626770 806.273071,452.392517 
	C803.289856,451.510712 800.469788,450.058075 797.471863,449.248962 
	C792.436462,447.889954 787.316589,446.845215 782.236084,445.651947 
	C778.894165,444.867035 775.562744,444.037415 772.219971,443.256531 
	C767.903198,442.248199 763.579712,441.268494 759.062805,440.084717 
	C759.062805,440.084717 758.868896,439.890472 758.192505,439.594086 
	C753.342773,438.673706 748.448425,437.939514 743.653809,436.789398 
	C736.424500,435.055237 729.314270,432.809448 722.062439,431.188141 
	C713.894836,429.362030 705.515015,428.415802 697.428406,426.313660 
	C685.884644,423.312744 674.530640,419.585052 663.082458,416.212433 
	C652.764954,413.172943 642.435669,410.172760 632.100342,407.194366 
	C624.277283,404.939941 616.304504,403.121643 608.640930,400.420807 
	C601.056885,397.747955 593.779175,394.206909 586.363159,391.055969 
	C574.016296,385.809967 561.504517,380.915405 549.371887,375.214020 
	C540.650696,371.115784 532.412354,365.982452 523.999023,361.239227 
	C518.115112,357.921967 512.161316,354.696503 506.500885,351.025848 
	C502.630768,348.516144 499.246521,345.265839 495.583527,342.426025 
	C489.955261,338.062531 483.622528,334.388245 478.769257,329.296326 
	C471.626801,321.802734 465.138733,313.593719 459.110901,305.161194 
	C454.974457,299.374664 452.093140,292.690948 448.074768,285.356995 
	C450.056793,285.963135 450.826355,286.063660 451.459595,286.412018 
	C464.472778,293.570648 477.242950,301.218719 490.549103,307.780701 
	C499.793304,312.339508 509.639069,315.809235 519.451355,319.053864 
	C533.150940,323.583893 547.071350,327.445709 560.894714,331.601929 
	C574.199341,335.602203 587.464172,339.740082 600.814575,343.580963 
	C612.290466,346.882568 623.844177,349.920105 635.397339,352.945007 
	C645.805847,355.670197 656.288330,358.114441 666.686340,360.877563 
	C676.336060,363.441864 685.936462,366.197937 695.523071,368.991608 
	C704.574646,371.629303 713.534607,374.589325 722.618469,377.105988 
	C731.406677,379.540741 740.413574,381.224182 749.124573,383.890625 
	C764.737915,388.669952 780.232544,393.846375 795.708496,399.059418 
	C800.413818,400.644348 804.847351,403.017548 809.487366,404.818420 
	C824.884827,410.794464 840.458435,416.341217 855.697937,422.692291 
	C868.803589,428.154083 881.765930,434.060883 894.386902,440.557190 
	C908.453979,447.797852 922.364441,455.446930 935.763672,463.842896 
	C944.260376,469.166901 951.722595,476.149811 959.604919,482.443634 
	C964.113525,486.043701 966.700134,485.446167 968.035706,479.733612 
	C970.251282,470.256653 969.239380,460.632172 963.310486,453.073334 
	C955.882141,443.602844 947.947205,433.945129 938.375977,426.881683 
	C925.148132,417.119751 910.268372,409.565582 895.934204,401.348389 
	C890.079163,397.991943 883.902161,395.136475 877.688782,392.481079 
	C869.890381,389.148315 861.562988,386.908966 854.085632,383.006439 
	C844.781433,378.150574 835.153503,374.921875 824.934998,372.839294 
	C818.841492,371.597412 812.926331,369.417999 806.991760,367.474579 
	C799.462830,365.009064 792.094055,361.997009 784.469238,359.900452 
	C778.746460,358.326935 772.584717,358.338104 766.874695,356.732361 
	C757.339661,354.050964 748.085754,350.379761 738.574402,347.601593 
	C725.625244,343.819244 712.539368,340.506378 699.523438,336.950684 
	C689.614075,334.243652 679.764465,331.307098 669.811829,328.772675 
	C658.540894,325.902588 647.137085,323.551605 635.876770,320.643188 
	C618.938660,316.268219 602.795837,309.005951 585.106201,307.229645 
	C580.866211,306.803894 576.964844,303.695190 572.732483,302.387634 
	C552.328735,296.084198 531.648254,290.684845 511.901459,282.328552 
	C495.538757,275.404327 479.476257,268.052765 465.223053,257.226624 
	C449.553528,245.324753 436.858734,231.404510 433.086731,211.216599 
	C431.810303,204.384949 430.468658,197.565323 429.224548,190.727875 
	C428.510895,186.805481 426.024292,185.251160 422.275940,184.858780 
	C418.606049,184.474640 415.835175,185.815750 414.926636,189.258926 
	C412.984894,196.618011 410.383850,204.045059 410.044159,211.534592 
	C409.338470,227.094009 409.696655,242.717484 410.050568,258.304810 
	C410.425781,274.831696 417.060760,289.984192 422.248749,305.236511 
	C425.546478,314.931641 431.912689,323.798706 437.949554,332.293274 
	C445.924530,343.515015 455.257568,353.647461 466.799713,361.516205 
	C480.291077,370.713837 493.427124,380.455261 507.171173,389.251556 
	C515.773193,394.756958 525.098755,399.186584 534.301880,403.685242 
	C548.121399,410.440369 561.959534,417.203064 576.091675,423.257904 
	C586.724976,427.813660 598.050598,430.753937 608.681458,435.314667 
	C628.934875,444.003479 650.602295,447.252563 671.946045,452.929382 
	C671.946045,452.929382 672.189148,453.162445 672.810608,453.483917 
	C676.576660,454.705414 680.269592,456.271454 684.121399,457.089325 
	C701.698853,460.821808 719.389893,464.040436 736.909851,468.017731 
	C759.630737,473.175690 782.286926,478.650696 804.842468,484.485809 
	C811.502869,486.208862 817.651123,489.824921 824.171570,492.195068 
	C835.489258,496.308960 847.189392,499.260101 857.789368,505.397919 
	C867.820068,511.206207 878.573669,515.764893 888.614380,521.557678 
	C897.325439,526.583435 905.590637,532.414062 913.854248,538.173889 
	C921.299072,543.362976 928.852295,548.505249 935.673523,554.452942 
	C944.363037,562.029602 952.528625,570.234558 960.605347,578.477112 
	C966.154846,584.140564 970.981628,590.507507 976.460999,596.245239 
	C987.915161,608.239563 995.421265,622.976990 1004.835693,636.384766 
	C1007.019958,639.495544 1007.979736,642.977539 1005.723511,646.188110 
	C997.486938,657.908447 993.287781,672.021667 983.354492,682.784973 
	C975.838684,690.928772 969.477356,700.145203 961.887390,708.211731 
	C951.104065,719.672180 939.067932,729.690308 925.768188,738.325500 
	C908.415771,749.591858 890.313232,759.027954 870.472107,764.999329 
	C864.821472,766.699951 859.159363,768.362671 852.731201,770.077087 
	C845.506104,771.660217 838.280945,773.243347 830.252136,774.867493 
	C829.447754,774.852112 828.643372,774.836792 827.095459,774.609131 
	C823.110352,774.930176 819.125244,775.251221 814.201599,775.665588 
	C809.562500,775.406311 804.888489,775.416382 800.293152,774.820068 
	C794.434082,774.059753 788.516052,771.513550 782.842102,772.049988 
	C772.233521,773.053040 763.150757,767.884277 753.272156,766.179749 
	C743.867065,764.556946 734.820557,759.897949 726.081543,755.622925 
	C715.941040,750.662415 706.266479,744.736938 696.464050,739.100952 
	C684.508789,732.227173 674.289307,723.082703 664.396057,713.637878 
	C646.694397,696.738586 633.199585,676.674133 622.922363,654.631531 
	C612.557251,632.400696 606.869324,608.759277 604.657166,584.293945 
	C603.173035,567.879700 603.457458,551.577515 607.111511,535.441650 
	C610.137512,522.079224 613.061035,508.674652 618.684021,496.081268 
	C621.112366,490.642578 623.774170,485.308441 626.290222,479.908325 
	C627.060486,478.255096 628.425476,476.443298 628.216248,474.878204 
	C627.946777,472.862152 626.837341,470.024750 625.267639,469.284790 
	C619.739502,466.678711 613.856873,464.826324 608.114319,462.673157 
	C601.457092,460.177032 596.715637,461.680420 594.174072,468.152649 
	C589.298035,480.569977 584.517700,493.058014 580.494995,505.769043 
	C575.154480,522.643738 573.800720,540.203735 573.443665,557.810120 
	C573.269287,566.412109 573.318359,575.032654 573.677124,583.627686 
	C574.084229,593.379395 574.140015,603.256042 575.838867,612.813416 
	C577.648254,622.992249 580.921692,632.950317 584.074219,642.839539 
	C587.048218,652.168579 590.098694,661.557739 594.180725,670.430359 
	C601.176392,685.636108 609.657043,700.100159 620.661255,712.808411 
	C629.664856,723.206238 638.997803,733.350037 648.673950,743.122192 
	C654.244263,748.747681 660.389160,754.010376 666.977295,758.377625 
	C679.380737,766.599915 692.038025,774.520386 705.085938,781.659668 
	C713.145691,786.069641 722.039734,789.028503 730.715759,792.212280 
	C736.279236,794.253906 742.515137,794.725769 747.770081,797.292542 
	C759.826660,803.181641 773.130371,802.066711 785.725647,804.783691 
	C795.095032,806.804871 805.195312,805.566650 814.969360,805.536194 
	C821.116821,805.517029 827.275574,805.210632 833.405945,804.732605 
	C839.176941,804.282654 845.020996,803.904907 850.645691,802.653748 
	C858.155396,800.983154 865.459595,798.408630 872.897583,796.390076 
	C880.839600,794.234863 889.034546,792.831726 896.746948,790.063599 
	C903.640991,787.589233 910.019104,783.684143 916.642395,780.446228 
	C920.753357,778.436523 925.100342,776.825623 928.981689,774.448364 
	C936.016235,770.139771 943.137207,765.840332 949.581665,760.729553 
	C960.976074,751.693420 972.328552,742.513550 982.864197,732.514648 
	C990.991943,724.800964 997.804932,715.708252 1005.269531,707.288086 
	C1016.632935,694.470032 1025.355225,679.948853 1032.784790,664.613037 
	C1035.366089,659.284790 1037.502563,653.742554 1039.914185,648.330078 
	C1041.921387,643.825378 1044.474121,639.509216 1045.973633,634.848450 
	C1047.422852,630.343689 1046.847778,625.016785 1048.883301,620.902771 
	C1055.704224,607.116821 1056.602783,591.978516 1058.587646,577.354553 
	C1060.440063,563.706604 1059.783447,549.493591 1058.456055,535.700195 
	C1057.067261,521.271362 1054.074707,506.929474 1050.848511,492.762421 
	C1047.146729,476.506714 1039.387573,461.763031 1031.407104,447.252045 
	C1028.880737,442.658295 1025.365601,438.592072 1022.167358,434.387543 
	C1015.366577,425.447205 1009.004395,416.100342 1001.516968,407.769867 
	C984.327026,388.644440 963.848145,373.322937 942.020020,359.978119 
	C928.508911,351.718109 914.304810,344.533905 900.113647,337.465179 
	C891.255676,333.052948 881.854309,329.726379 872.671509,325.974426 
	C869.794189,324.798798 866.843323,323.799438 863.910706,322.763184 
	C858.484009,320.845642 853.058472,318.923431 847.609863,317.069611 
	C836.696960,313.356537 825.816711,309.536774 814.826782,306.065247 
	C809.334900,304.330475 803.585632,303.427551 798.034729,301.858429 
	C790.250488,299.658081 782.555664,297.143372 774.797913,294.846619 
	C768.700073,293.041290 762.564758,291.362396 755.161072,289.262909 
	C757.828003,287.277588 759.266052,285.979797 760.904907,285.027924 
	C766.759583,281.627625 772.715942,278.402435 778.570557,275.002075 
	C784.991760,271.272675 791.224670,267.202301 797.762573,263.696198 
	C802.857422,260.963959 808.266479,258.805725 813.583496,256.502197 
	C827.118286,250.638504 840.561462,244.537552 854.269775,239.108505 
	C864.396973,235.097717 874.759888,231.552734 885.245972,228.614792 
	C895.239319,225.814926 905.487610,223.857498 915.696045,221.907974 
	C934.184387,218.377274 952.616821,214.164505 971.277954,212.041382 
	C988.711426,210.057953 1006.424866,209.651550 1023.990295,209.960709 
	C1041.582153,210.270309 1059.181519,211.952881 1076.703979,213.751572 
	C1087.392456,214.848709 1097.963135,217.187378 1108.547729,219.175827 
	C1120.365479,221.395935 1132.236328,223.457932 1143.897583,226.342834 
	C1151.588257,228.245407 1158.918091,231.573639 1166.469482,234.083176 
	C1171.476074,235.746994 1176.756470,236.680725 1181.619507,238.663910 
	C1192.211670,242.983368 1202.699829,247.583557 1213.072144,252.409134 
	C1223.133789,257.090118 1233.011353,262.168671 1242.934204,267.143555 
	C1244.556519,267.956879 1245.958740,269.197388 1247.524902,270.136780 
	C1257.141479,275.905029 1266.981689,281.329651 1276.352539,287.471283 
	C1288.076416,295.154999 1299.974121,302.743896 1310.781250,311.611389 
	C1323.218872,321.816803 1335.905640,331.846863 1346.940552,343.702332 
	C1351.108765,348.180634 1354.665771,348.288544 1358.851685,343.781464 
	C1363.903809,338.341583 1368.400269,332.383972 1373.107422,326.626099 
	C1376.750977,322.169281 1377.036987,319.839233 1372.518066,316.007050 
	C1357.913086,303.621277 1343.265259,291.253082 1328.099487,279.572113 
	C1316.609863,270.722534 1304.356079,262.855286 1292.329346,254.718018 
	C1288.518188,252.139328 1284.277954,250.204147 1280.352417,247.782684 
	C1276.571045,245.450150 1273.105225,242.567871 1269.208618,240.469360 
	C1263.393066,237.337402 1256.784912,235.439804 1251.460938,231.677246 
	C1236.636963,221.201141 1219.212891,216.510040 1202.945679,209.415695 
	C1187.028198,202.473846 1170.019043,197.982956 1153.375977,192.778152 
	C1144.867188,190.117188 1136.168213,187.976471 1127.444214,186.123138 
	C1122.144531,184.997253 1116.632935,184.868561 1111.047363,184.077850 
	C1111.047363,184.077850 1110.878052,183.863785 1110.172119,183.602524 
	C1105.746826,182.950394 1101.327637,182.253860 1096.895264,181.654343 
	C1082.601562,179.721069 1068.353394,177.069138 1053.993164,176.112305 
	C1037.776367,175.031769 1021.451111,175.695358 1005.184326,175.215637 
	C989.399475,174.750122 973.804016,176.251892 958.236084,178.550720 
	C945.487000,180.433273 932.722168,182.208923 919.987610,184.004639 
	C919.987610,184.004639 920.007019,183.975235 919.164062,184.035065 
	C910.076050,185.746124 900.824219,186.861740 891.937744,189.305603 
	C878.074768,193.118073 864.474792,197.880814 850.730347,202.134201 
	C846.330017,203.495956 841.640991,204.069885 837.410278,205.801437 
	C830.712158,208.542831 824.392578,212.201263 817.721680,215.019196 
	C810.269958,218.166992 802.272278,220.156998 795.102234,223.809158 
	C780.384399,231.305847 765.934998,239.357712 751.612244,247.593430 
	C739.514526,254.549713 727.328857,261.489685 715.951538,269.526184 
	C702.911133,278.737396 690.694763,289.119263 678.200623,299.093048 
	C677.065491,299.999207 675.532715,302.195435 675.889648,302.823608 
	C676.724609,304.292694 678.440552,305.769806 680.073120,306.195648 
	C692.038208,309.316620 704.093872,312.088257 716.075439,315.148285 
	C728.388245,318.292877 740.649353,321.639587 753.034790,325.022186 
M1253.201782,732.851318 
	C1251.387695,740.338196 1258.410400,745.274231 1266.427490,748.518188 
	C1275.374268,752.138367 1285.342285,753.142700 1294.568726,756.186462 
	C1306.845581,760.236511 1319.264038,760.823792 1331.844971,759.228943 
	C1338.321899,758.407898 1344.725830,755.288147 1351.068970,755.542297 
	C1360.391235,755.915894 1368.078003,751.608765 1376.213379,748.893127 
	C1383.472046,746.470154 1390.322632,742.335938 1396.775391,738.080322 
	C1414.455688,726.419983 1430.184570,712.418579 1442.204712,694.903198 
	C1449.495483,684.279358 1456.359985,673.120300 1461.574341,661.383545 
	C1466.604858,650.060547 1470.088501,637.866272 1472.751953,625.725708 
	C1475.606689,612.712708 1478.105225,599.328186 1478.222046,586.083496 
	C1478.362671,570.114563 1476.626343,554.000854 1474.205688,538.178772 
	C1472.317139,525.834595 1468.623657,513.685669 1464.793945,501.751129 
	C1462.652466,495.078064 1458.711792,488.958374 1455.378418,482.697632 
	C1450.978027,474.432648 1446.450317,466.232941 1441.834106,458.086243 
	C1439.416138,453.819183 1436.730347,454.959869 1434.071411,458.045135 
	C1428.893677,464.053070 1423.811157,470.155609 1418.375977,475.923737 
	C1415.753784,478.706451 1415.175781,481.102325 1417.405029,484.240234 
	C1426.414307,496.921753 1431.876221,511.309113 1437.707764,525.587769 
	C1443.411987,539.554504 1446.212891,554.031555 1447.327515,568.900452 
	C1447.811523,575.356628 1447.858521,581.930847 1447.229858,588.365967 
	C1446.205322,598.852417 1445.309204,609.478943 1442.779175,619.653564 
	C1440.396118,629.237427 1436.169434,638.394592 1432.403198,647.595886 
	C1425.478516,664.513672 1415.369263,679.579895 1402.807861,692.644165 
	C1389.725220,706.250427 1373.765137,716.222717 1355.863403,722.350403 
	C1339.897827,727.815430 1323.595459,730.084778 1306.522949,726.423828 
	C1291.197998,723.137573 1277.621094,716.382935 1264.305908,708.735840 
	C1260.127319,706.336182 1257.748657,706.879456 1256.883301,711.553284 
	C1255.623291,718.358826 1254.623535,725.212708 1253.201782,732.851318 
z"/>
<path fill="#262228" opacity="1.000000" stroke="none" 
	d="
M919.964294,184.031967 
	C932.722168,182.208923 945.487000,180.433273 958.236084,178.550720 
	C973.804016,176.251892 989.399475,174.750122 1005.184326,175.215637 
	C1021.451111,175.695358 1037.776367,175.031769 1053.993164,176.112305 
	C1068.353394,177.069138 1082.601562,179.721069 1096.895264,181.654343 
	C1101.327637,182.253860 1105.746826,182.950394 1110.389160,183.764221 
	C1110.422241,184.092209 1110.238525,184.258484 1110.054810,184.424774 
	C1110.442017,184.380508 1110.829346,184.336197 1111.216553,184.291901 
	C1116.632935,184.868561 1122.144531,184.997253 1127.444214,186.123138 
	C1136.168213,187.976471 1144.867188,190.117188 1153.375977,192.778152 
	C1170.019043,197.982956 1187.028198,202.473846 1202.945679,209.415695 
	C1219.212891,216.510040 1236.636963,221.201141 1251.460938,231.677246 
	C1256.784912,235.439804 1263.393066,237.337402 1269.208618,240.469360 
	C1273.105225,242.567871 1276.571045,245.450150 1280.352417,247.782684 
	C1284.277954,250.204147 1288.518188,252.139328 1292.329346,254.718018 
	C1304.356079,262.855286 1316.609863,270.722534 1328.099487,279.572113 
	C1343.265259,291.253082 1357.913086,303.621277 1372.518066,316.007050 
	C1377.036987,319.839233 1376.750977,322.169281 1373.107422,326.626099 
	C1368.400269,332.383972 1363.903809,338.341583 1358.851685,343.781464 
	C1354.665771,348.288544 1351.108765,348.180634 1346.940552,343.702332 
	C1335.905640,331.846863 1323.218872,321.816803 1310.781250,311.611389 
	C1299.974121,302.743896 1288.076416,295.154999 1276.352539,287.471283 
	C1266.981689,281.329651 1257.141479,275.905029 1247.524902,270.136780 
	C1245.958740,269.197388 1244.556519,267.956879 1242.934204,267.143555 
	C1233.011353,262.168671 1223.133789,257.090118 1213.072144,252.409134 
	C1202.699829,247.583557 1192.211670,242.983368 1181.619507,238.663910 
	C1176.756470,236.680725 1171.476074,235.746994 1166.469482,234.083176 
	C1158.918091,231.573639 1151.588257,228.245407 1143.897583,226.342834 
	C1132.236328,223.457932 1120.365479,221.395935 1108.547729,219.175827 
	C1097.963135,217.187378 1087.392456,214.848709 1076.703979,213.751572 
	C1059.181519,211.952881 1041.582153,210.270309 1023.990295,209.960709 
	C1006.424866,209.651550 988.711426,210.057953 971.277954,212.041382 
	C952.616821,214.164505 934.184387,218.377274 915.696045,221.907974 
	C905.487610,223.857498 895.239319,225.814926 885.245972,228.614792 
	C874.759888,231.552734 864.396973,235.097717 854.269775,239.108505 
	C840.561462,244.537552 827.118286,250.638504 813.583496,256.502197 
	C808.266479,258.805725 802.857422,260.963959 797.762573,263.696198 
	C791.224670,267.202301 784.991760,271.272675 778.570557,275.002075 
	C772.715942,278.402435 766.759583,281.627625 760.904907,285.027924 
	C759.266052,285.979797 757.828003,287.277588 755.161072,289.262909 
	C762.564758,291.362396 768.700073,293.041290 774.797913,294.846619 
	C782.555664,297.143372 790.250488,299.658081 798.034729,301.858429 
	C803.585632,303.427551 809.334900,304.330475 814.826782,306.065247 
	C825.816711,309.536774 836.696960,313.356537 847.609863,317.069611 
	C853.058472,318.923431 858.484009,320.845642 863.910706,322.763184 
	C866.843323,323.799438 869.794189,324.798798 872.671509,325.974426 
	C881.854309,329.726379 891.255676,333.052948 900.113647,337.465179 
	C914.304810,344.533905 928.508911,351.718109 942.020020,359.978119 
	C963.848145,373.322937 984.327026,388.644440 1001.516968,407.769867 
	C1009.004395,416.100342 1015.366577,425.447205 1022.167358,434.387543 
	C1025.365601,438.592072 1028.880737,442.658295 1031.407104,447.252045 
	C1039.387573,461.763031 1047.146729,476.506714 1050.848511,492.762421 
	C1054.074707,506.929474 1057.067261,521.271362 1058.456055,535.700195 
	C1059.783447,549.493591 1060.440063,563.706604 1058.587646,577.354553 
	C1056.602783,591.978516 1055.704224,607.116821 1048.883301,620.902771 
	C1046.847778,625.016785 1047.422852,630.343689 1045.973633,634.848450 
	C1044.474121,639.509216 1041.921387,643.825378 1039.914185,648.330078 
	C1037.502563,653.742554 1035.366089,659.284790 1032.784790,664.613037 
	C1025.355225,679.948853 1016.632935,694.470032 1005.269531,707.288086 
	C997.804932,715.708252 990.991943,724.800964 982.864197,732.514648 
	C972.328552,742.513550 960.976074,751.693420 949.581665,760.729553 
	C943.137207,765.840332 936.016235,770.139771 928.981689,774.448364 
	C925.100342,776.825623 920.753357,778.436523 916.642395,780.446228 
	C910.019104,783.684143 903.640991,787.589233 896.746948,790.063599 
	C889.034546,792.831726 880.839600,794.234863 872.897583,796.390076 
	C865.459595,798.408630 858.155396,800.983154 850.645691,802.653748 
	C845.020996,803.904907 839.176941,804.282654 833.405945,804.732605 
	C827.275574,805.210632 821.116821,805.517029 814.969360,805.536194 
	C805.195312,805.566650 795.095032,806.804871 785.725647,804.783691 
	C773.130371,802.066711 759.826660,803.181641 747.770081,797.292542 
	C742.515137,794.725769 736.279236,794.253906 730.715759,792.212280 
	C722.039734,789.028503 713.145691,786.069641 705.085938,781.659668 
	C692.038025,774.520386 679.380737,766.599915 666.977295,758.377625 
	C660.389160,754.010376 654.244263,748.747681 648.673950,743.122192 
	C638.997803,733.350037 629.664856,723.206238 620.661255,712.808411 
	C609.657043,700.100159 601.176392,685.636108 594.180725,670.430359 
	C590.098694,661.557739 587.048218,652.168579 584.074219,642.839539 
	C580.921692,632.950317 577.648254,622.992249 575.838867,612.813416 
	C574.140015,603.256042 574.084229,593.379395 573.677124,583.627686 
	C573.318359,575.032654 573.269287,566.412109 573.443665,557.810120 
	C573.800720,540.203735 575.154480,522.643738 580.494995,505.769043 
	C584.517700,493.058014 589.298035,480.569977 594.174072,468.152649 
	C596.715637,461.680420 601.457092,460.177032 608.114319,462.673157 
	C613.856873,464.826324 619.739502,466.678711 625.267639,469.284790 
	C626.837341,470.024750 627.946777,472.862152 628.216248,474.878204 
	C628.425476,476.443298 627.060486,478.255096 626.290222,479.908325 
	C623.774170,485.308441 621.112366,490.642578 618.684021,496.081268 
	C613.061035,508.674652 610.137512,522.079224 607.111511,535.441650 
	C603.457458,551.577515 603.173035,567.879700 604.657166,584.293945 
	C606.869324,608.759277 612.557251,632.400696 622.922363,654.631531 
	C633.199585,676.674133 646.694397,696.738586 664.396057,713.637878 
	C674.289307,723.082703 684.508789,732.227173 696.464050,739.100952 
	C706.266479,744.736938 715.941040,750.662415 726.081543,755.622925 
	C734.820557,759.897949 743.867065,764.556946 753.272156,766.179749 
	C763.150757,767.884277 772.233521,773.053040 782.842102,772.049988 
	C788.516052,771.513550 794.434082,774.059753 800.293152,774.820068 
	C804.888489,775.416382 809.562500,775.406311 815.110229,775.682861 
	C819.958923,775.407227 823.898926,775.114319 827.838989,774.821411 
	C828.643372,774.836792 829.447754,774.852112 831.088989,774.878540 
	C838.697937,773.849792 845.475403,772.841736 852.231384,771.705688 
	C852.734131,771.621155 853.082458,770.618591 853.502563,770.042847 
	C859.159363,768.362671 864.821472,766.699951 870.472107,764.999329 
	C890.313232,759.027954 908.415771,749.591858 925.768188,738.325500 
	C939.067932,729.690308 951.104065,719.672180 961.887390,708.211731 
	C969.477356,700.145203 975.838684,690.928772 983.354492,682.784973 
	C993.287781,672.021667 997.486938,657.908447 1005.723511,646.188110 
	C1007.979736,642.977539 1007.019958,639.495544 1004.835693,636.384766 
	C995.421265,622.976990 987.915161,608.239563 976.460999,596.245239 
	C970.981628,590.507507 966.154846,584.140564 960.605347,578.477112 
	C952.528625,570.234558 944.363037,562.029602 935.673523,554.452942 
	C928.852295,548.505249 921.299072,543.362976 913.854248,538.173889 
	C905.590637,532.414062 897.325439,526.583435 888.614380,521.557678 
	C878.573669,515.764893 867.820068,511.206207 857.789368,505.397919 
	C847.189392,499.260101 835.489258,496.308960 824.171570,492.195068 
	C817.651123,489.824921 811.502869,486.208862 804.842468,484.485809 
	C782.286926,478.650696 759.630737,473.175690 736.909851,468.017731 
	C719.389893,464.040436 701.698853,460.821808 684.121399,457.089325 
	C680.269592,456.271454 676.576660,454.705414 672.518311,453.237549 
	C672.225952,452.991150 672.052002,452.692352 672.052002,452.692352 
	C672.052002,452.692352 671.699280,452.700226 671.699280,452.700226 
	C650.602295,447.252563 628.934875,444.003479 608.681458,435.314667 
	C598.050598,430.753937 586.724976,427.813660 576.091675,423.257904 
	C561.959534,417.203064 548.121399,410.440369 534.301880,403.685242 
	C525.098755,399.186584 515.773193,394.756958 507.171173,389.251556 
	C493.427124,380.455261 480.291077,370.713837 466.799713,361.516205 
	C455.257568,353.647461 445.924530,343.515015 437.949554,332.293274 
	C431.912689,323.798706 425.546478,314.931641 422.248749,305.236511 
	C417.060760,289.984192 410.425781,274.831696 410.050568,258.304810 
	C409.696655,242.717484 409.338470,227.094009 410.044159,211.534592 
	C410.383850,204.045059 412.984894,196.618011 414.926636,189.258926 
	C415.835175,185.815750 418.606049,184.474640 422.275940,184.858780 
	C426.024292,185.251160 428.510895,186.805481 429.224548,190.727875 
	C430.468658,197.565323 431.810303,204.384949 433.086731,211.216599 
	C436.858734,231.404510 449.553528,245.324753 465.223053,257.226624 
	C479.476257,268.052765 495.538757,275.404327 511.901459,282.328552 
	C531.648254,290.684845 552.328735,296.084198 572.732483,302.387634 
	C576.964844,303.695190 580.866211,306.803894 585.106201,307.229645 
	C602.795837,309.005951 618.938660,316.268219 635.876770,320.643188 
	C647.137085,323.551605 658.540894,325.902588 669.811829,328.772675 
	C679.764465,331.307098 689.614075,334.243652 699.523438,336.950684 
	C712.539368,340.506378 725.625244,343.819244 738.574402,347.601593 
	C748.085754,350.379761 757.339661,354.050964 766.874695,356.732361 
	C772.584717,358.338104 778.746460,358.326935 784.469238,359.900452 
	C792.094055,361.997009 799.462830,365.009064 806.991760,367.474579 
	C812.926331,369.417999 818.841492,371.597412 824.934998,372.839294 
	C835.153503,374.921875 844.781433,378.150574 854.085632,383.006439 
	C861.562988,386.908966 869.890381,389.148315 877.688782,392.481079 
	C883.902161,395.136475 890.079163,397.991943 895.934204,401.348389 
	C910.268372,409.565582 925.148132,417.119751 938.375977,426.881683 
	C947.947205,433.945129 955.882141,443.602844 963.310486,453.073334 
	C969.239380,460.632172 970.251282,470.256653 968.035706,479.733612 
	C966.700134,485.446167 964.113525,486.043701 959.604919,482.443634 
	C951.722595,476.149811 944.260376,469.166901 935.763672,463.842896 
	C922.364441,455.446930 908.453979,447.797852 894.386902,440.557190 
	C881.765930,434.060883 868.803589,428.154083 855.697937,422.692291 
	C840.458435,416.341217 824.884827,410.794464 809.487366,404.818420 
	C804.847351,403.017548 800.413818,400.644348 795.708496,399.059418 
	C780.232544,393.846375 764.737915,388.669952 749.124573,383.890625 
	C740.413574,381.224182 731.406677,379.540741 722.618469,377.105988 
	C713.534607,374.589325 704.574646,371.629303 695.523071,368.991608 
	C685.936462,366.197937 676.336060,363.441864 666.686340,360.877563 
	C656.288330,358.114441 645.805847,355.670197 635.397339,352.945007 
	C623.844177,349.920105 612.290466,346.882568 600.814575,343.580963 
	C587.464172,339.740082 574.199341,335.602203 560.894714,331.601929 
	C547.071350,327.445709 533.150940,323.583893 519.451355,319.053864 
	C509.639069,315.809235 499.793304,312.339508 490.549103,307.780701 
	C477.242950,301.218719 464.472778,293.570648 451.459595,286.412018 
	C450.826355,286.063660 450.056793,285.963135 448.074768,285.356995 
	C452.093140,292.690948 454.974457,299.374664 459.110901,305.161194 
	C465.138733,313.593719 471.626801,321.802734 478.769257,329.296326 
	C483.622528,334.388245 489.955261,338.062531 495.583527,342.426025 
	C499.246521,345.265839 502.630768,348.516144 506.500885,351.025848 
	C512.161316,354.696503 518.115112,357.921967 523.999023,361.239227 
	C532.412354,365.982452 540.650696,371.115784 549.371887,375.214020 
	C561.504517,380.915405 574.016296,385.809967 586.363159,391.055969 
	C593.779175,394.206909 601.056885,397.747955 608.640930,400.420807 
	C616.304504,403.121643 624.277283,404.939941 632.100342,407.194366 
	C642.435669,410.172760 652.764954,413.172943 663.082458,416.212433 
	C674.530640,419.585052 685.884644,423.312744 697.428406,426.313660 
	C705.515015,428.415802 713.894836,429.362030 722.062439,431.188141 
	C729.314270,432.809448 736.424500,435.055237 743.653809,436.789398 
	C748.448425,437.939514 753.342773,438.673706 758.509216,439.810791 
	C758.825928,440.027527 758.961670,440.282013 758.961670,440.282013 
	C758.961670,440.282013 759.259155,440.276459 759.259155,440.276489 
	C763.579712,441.268494 767.903198,442.248199 772.219971,443.256531 
	C775.562744,444.037415 778.894165,444.867035 782.236084,445.651947 
	C787.316589,446.845215 792.436462,447.889954 797.471863,449.248962 
	C800.469788,450.058075 803.289856,451.510712 806.273071,452.392517 
	C817.214600,455.626770 828.284973,458.457520 839.114685,462.023834 
	C844.564758,463.818604 849.547791,466.990875 854.840332,469.316559 
	C860.249023,471.693390 865.900635,473.539642 871.224731,476.081482 
	C878.631104,479.617401 885.819702,483.607605 893.124695,487.358368 
	C897.182495,489.441833 901.433716,491.190491 905.330566,493.534271 
	C909.392944,495.977692 913.056702,499.074341 917.040100,501.661530 
	C920.219604,503.726532 923.972290,505.025543 926.857422,507.407196 
	C939.975098,518.235168 953.004211,529.178955 965.812500,540.370239 
	C975.545654,548.874756 985.451355,557.296692 994.264160,566.706970 
	C1002.943909,575.975220 1010.327759,586.454956 1018.328430,596.364136 
	C1019.304260,597.572876 1020.578857,598.540344 1021.714966,599.619629 
	C1022.556702,598.124756 1024.037476,596.673035 1024.141479,595.128479 
	C1025.199463,579.433594 1026.625854,563.727539 1026.727417,548.016663 
	C1026.798950,536.956482 1025.810913,525.727539 1023.752747,514.866333 
	C1022.078064,506.028595 1017.834534,497.708527 1015.220215,489.011597 
	C1009.478577,469.911011 997.549622,454.599396 984.882019,439.930908 
	C975.827393,429.446106 966.040588,419.456909 955.639404,410.317627 
	C948.129211,403.718475 939.064026,398.891693 930.707764,393.251526 
	C925.794739,389.935425 921.150391,386.131714 915.960083,383.336823 
	C908.099731,379.104126 899.978638,375.303772 891.770325,371.781006 
	C878.867065,366.243286 865.501282,361.704346 852.886230,355.596466 
	C840.806702,349.747894 828.068115,346.399048 815.315674,342.824219 
	C798.647705,338.151825 781.988342,333.448425 765.327271,328.751587 
	C761.463806,327.662476 757.607971,326.545990 753.571655,325.261871 
	C753.568848,324.918213 753.742981,324.754822 753.917114,324.591431 
	C753.589172,324.693573 753.261108,324.795715 752.933105,324.897858 
	C740.649353,321.639587 728.388245,318.292877 716.075439,315.148285 
	C704.093872,312.088257 692.038208,309.316620 680.073120,306.195648 
	C678.440552,305.769806 676.724609,304.292694 675.889648,302.823608 
	C675.532715,302.195435 677.065491,299.999207 678.200623,299.093048 
	C690.694763,289.119263 702.911133,278.737396 715.951538,269.526184 
	C727.328857,261.489685 739.514526,254.549713 751.612244,247.593430 
	C765.934998,239.357712 780.384399,231.305847 795.102234,223.809158 
	C802.272278,220.156998 810.269958,218.166992 817.721680,215.019196 
	C824.392578,212.201263 830.712158,208.542831 837.410278,205.801437 
	C841.640991,204.069885 846.330017,203.495956 850.730347,202.134201 
	C864.474792,197.880814 878.074768,193.118073 891.937744,189.305603 
	C900.824219,186.861740 910.076050,185.746124 919.685059,184.116425 
	C920.433960,184.281433 920.661804,184.365082 920.889709,184.448715 
	C920.847168,184.344833 920.823853,184.166946 920.758789,184.150101 
	C920.501038,184.083344 920.230225,184.067001 919.964294,184.031967 
M994.357788,176.037064 
	C994.037292,176.072845 993.716736,176.108643 993.396240,176.144455 
	C993.485779,176.364166 993.575317,176.583878 993.664917,176.803589 
	C993.972900,176.591644 994.280945,176.379684 994.357788,176.037064 
z"/>
<path fill="#262128" opacity="1.000000" stroke="none" 
	d="
M1411.974731,293.019012 
	C1413.089966,270.686890 1410.471924,249.007233 1401.337158,228.318192 
	C1398.753052,222.465652 1396.803101,216.274628 1395.228149,210.069809 
	C1394.739258,208.142899 1396.369263,203.792725 1397.157959,203.761078 
	C1400.193970,203.639282 1404.184814,203.855270 1406.163330,205.711151 
	C1410.338379,209.627258 1413.929565,214.373047 1416.945557,219.279312 
	C1426.452637,234.744629 1436.286743,250.077988 1444.604736,266.180176 
	C1449.870361,276.373260 1452.892822,287.769165 1456.502563,298.763092 
	C1461.692993,314.571167 1463.311646,330.971130 1461.860718,347.430084 
	C1460.908447,358.233307 1458.777344,369.044006 1456.005981,379.542999 
	C1453.421143,389.335358 1450.086060,399.103851 1445.683228,408.206696 
	C1435.804810,428.630890 1422.740845,446.978149 1405.577637,461.991180 
	C1396.154907,470.233398 1386.123169,477.807404 1376.103638,485.333282 
	C1357.328613,499.435608 1337.930664,512.743225 1319.597778,527.390015 
	C1301.211792,542.079407 1285.917236,559.933044 1273.420776,579.888916 
	C1265.713013,592.197632 1258.879639,605.087463 1252.222900,618.009705 
	C1247.353027,627.463379 1242.336182,637.093567 1239.493286,647.236023 
	C1238.009521,652.529541 1234.529297,658.529419 1237.900024,664.983032 
	C1239.124634,667.327698 1238.060059,670.867981 1238.052734,674.793335 
	C1238.093872,684.264282 1238.122314,692.804626 1238.150635,701.345032 
	C1237.787476,718.922974 1234.477539,735.986633 1229.305420,752.743896 
	C1225.493530,765.093811 1222.805542,777.894592 1217.883057,789.776367 
	C1207.419556,815.033813 1194.980591,839.363647 1179.088379,861.763794 
	C1178.517212,862.568726 1178.221069,863.563599 1177.696655,864.407776 
	C1175.329956,868.217834 1172.412109,868.316650 1169.998413,864.476868 
	C1168.501221,862.095276 1167.329224,859.490967 1166.182129,856.910583 
	C1157.672363,837.768799 1146.980347,819.898926 1133.735962,803.715088 
	C1125.454956,793.596497 1117.239258,782.937988 1107.069702,774.981689 
	C1095.740479,766.118103 1083.754150,757.810303 1070.656006,751.114319 
	C1061.298340,746.330566 1053.596924,738.280273 1045.261597,731.557190 
	C1044.180176,730.684937 1043.594849,729.089661 1043.008301,727.730713 
	C1040.497925,721.915100 1041.049561,720.989807 1047.256348,719.419006 
	C1056.889160,716.981323 1066.813721,715.257996 1076.010986,711.680298 
	C1082.979248,708.969727 1089.329346,704.267761 1095.385254,699.697571 
	C1107.794312,690.332947 1114.552246,677.262085 1118.547363,662.472961 
	C1121.822876,650.348450 1126.173828,638.565247 1133.692993,628.360229 
	C1141.077759,618.337524 1150.568604,611.495361 1163.171997,608.740417 
	C1172.551636,606.690125 1181.797607,607.282349 1190.903687,608.575867 
	C1198.637573,609.674438 1206.525757,611.815918 1212.536255,617.697937 
	C1213.114868,618.264160 1213.879395,618.660522 1214.603760,619.049622 
	C1215.020996,619.273804 1215.530884,619.325195 1216.520142,619.598022 
	C1220.574951,610.881714 1224.302979,601.981445 1228.778564,593.474548 
	C1234.167847,583.230591 1239.518921,572.852051 1246.109009,563.382568 
	C1254.744141,550.974731 1263.853638,538.733032 1274.091309,527.650574 
	C1284.461182,516.424866 1296.042603,506.198273 1307.863647,496.469879 
	C1317.914185,488.198456 1329.064941,481.264801 1339.721558,473.728729 
	C1356.470093,461.884705 1373.291138,450.156128 1387.812988,435.483063 
	C1401.211670,421.944977 1411.736572,406.588287 1420.008545,389.383118 
	C1426.088745,376.736786 1429.231567,363.676697 1430.092163,349.858856 
	C1430.218384,347.833099 1430.647583,345.826202 1430.936646,343.810608 
	C1430.416992,343.571442 1429.897339,343.332275 1429.377686,343.093109 
	C1426.836304,347.017731 1424.451660,351.055450 1421.719604,354.842468 
	C1416.695312,361.806335 1412.012939,369.127075 1406.217651,375.403137 
	C1390.740967,392.164337 1373.163940,406.599915 1354.512939,419.710693 
	C1347.907104,424.354309 1341.057007,428.651764 1334.474365,433.326782 
	C1326.920410,438.691711 1319.601196,444.386353 1312.067627,449.781036 
	C1302.919678,456.331665 1292.934204,461.912048 1284.599121,469.354767 
	C1270.043823,482.351776 1254.257812,494.084137 1242.054199,509.652374 
	C1233.086304,521.092834 1223.429565,531.991455 1214.187744,543.220398 
	C1211.148071,546.913635 1208.194946,545.362061 1205.544922,543.209412 
	C1200.792358,539.348694 1196.035889,535.408386 1191.888550,530.937683 
	C1190.610840,529.560425 1190.240845,525.625610 1191.276978,524.095947 
	C1197.959106,514.231995 1204.566284,504.210785 1212.318115,495.205170 
	C1221.579956,484.445160 1231.465942,474.100555 1241.991333,464.582031 
	C1253.993164,453.728302 1266.805908,443.734192 1279.639160,433.850983 
	C1287.227417,428.007080 1295.680176,423.300476 1303.489990,417.726562 
	C1315.871582,408.889984 1328.127686,399.871094 1340.270874,390.709290 
	C1349.621582,383.654388 1359.357422,376.929230 1367.775513,368.861237 
	C1380.284546,356.872406 1392.082153,344.271790 1400.764282,328.785675 
	C1405.994019,319.457550 1407.894409,309.354309 1411.584351,299.715851 
	C1412.277588,297.904877 1411.519165,295.538208 1411.740967,293.216370 
	C1412.051270,293.004822 1411.974731,293.019012 1411.974731,293.019012 
M1171.684204,803.540100 
	C1172.487793,804.534668 1173.291382,805.529236 1174.799072,807.395386 
	C1177.012207,803.961487 1179.222656,801.281738 1180.604858,798.227112 
	C1183.268677,792.340210 1185.413818,786.220642 1187.881104,780.241699 
	C1188.754395,778.125305 1190.121582,776.208130 1190.946533,774.077271 
	C1192.727173,769.478455 1194.491455,764.857544 1195.922974,760.142578 
	C1198.813599,750.620422 1202.325317,741.176514 1204.014771,731.428894 
	C1206.002319,719.960022 1206.843140,708.219971 1207.222534,696.566345 
	C1207.564819,686.046814 1207.543701,675.345276 1205.981934,664.980286 
	C1204.301392,653.826172 1200.154297,643.527527 1187.730103,639.228149 
	C1180.701050,636.795898 1174.021851,637.247070 1167.432251,639.808472 
	C1161.610962,642.071289 1156.155273,645.077026 1156.012817,652.642212 
	C1155.998535,653.399597 1155.312378,654.129822 1155.001465,654.898376 
	C1151.369263,663.877625 1147.568726,672.794312 1144.178467,681.864258 
	C1140.982666,690.414124 1138.480347,699.290649 1132.138428,706.218323 
	C1129.028564,709.615540 1125.487427,712.614563 1122.203613,715.856628 
	C1118.856812,719.160583 1115.689087,722.652161 1112.249268,725.853577 
	C1109.531616,728.382874 1106.520630,730.596985 1103.357544,733.181824 
	C1111.062622,739.205078 1117.943848,744.860718 1125.108276,750.131348 
	C1144.431396,764.346558 1158.418945,783.181030 1171.684204,803.540100 
z"/>
<path fill="#262128" opacity="1.000000" stroke="none" 
	d="
M1253.357422,732.448608 
	C1254.623535,725.212708 1255.623291,718.358826 1256.883301,711.553284 
	C1257.748657,706.879456 1260.127319,706.336182 1264.305908,708.735840 
	C1277.621094,716.382935 1291.197998,723.137573 1306.522949,726.423828 
	C1323.595459,730.084778 1339.897827,727.815430 1355.863403,722.350403 
	C1373.765137,716.222717 1389.725220,706.250427 1402.807861,692.644165 
	C1415.369263,679.579895 1425.478516,664.513672 1432.403198,647.595886 
	C1436.169434,638.394592 1440.396118,629.237427 1442.779175,619.653564 
	C1445.309204,609.478943 1446.205322,598.852417 1447.229858,588.365967 
	C1447.858521,581.930847 1447.811523,575.356628 1447.327515,568.900452 
	C1446.212891,554.031555 1443.411987,539.554504 1437.707764,525.587769 
	C1431.876221,511.309113 1426.414307,496.921753 1417.405029,484.240234 
	C1415.175781,481.102325 1415.753784,478.706451 1418.375977,475.923737 
	C1423.811157,470.155609 1428.893677,464.053070 1434.071411,458.045135 
	C1436.730347,454.959869 1439.416138,453.819183 1441.834106,458.086243 
	C1446.450317,466.232941 1450.978027,474.432648 1455.378418,482.697632 
	C1458.711792,488.958374 1462.652466,495.078064 1464.793945,501.751129 
	C1468.623657,513.685669 1472.317139,525.834595 1474.205688,538.178772 
	C1476.626343,554.000854 1478.362671,570.114563 1478.222046,586.083496 
	C1478.105225,599.328186 1475.606689,612.712708 1472.751953,625.725708 
	C1470.088501,637.866272 1466.604858,650.060547 1461.574341,661.383545 
	C1456.359985,673.120300 1449.495483,684.279358 1442.204712,694.903198 
	C1430.184570,712.418579 1414.455688,726.419983 1396.775391,738.080322 
	C1390.322632,742.335938 1383.472046,746.470154 1376.213379,748.893127 
	C1368.078003,751.608765 1360.391235,755.915894 1351.068970,755.542297 
	C1344.725830,755.288147 1338.321899,758.407898 1331.844971,759.228943 
	C1319.264038,760.823792 1306.845581,760.236511 1294.568726,756.186462 
	C1285.342285,753.142700 1275.374268,752.138367 1266.427490,748.518188 
	C1258.410400,745.274231 1251.387695,740.338196 1253.357422,732.448608 
M1445.406860,609.072021 
	C1445.406860,609.072021 1445.579468,609.025452 1445.579468,609.025452 
	C1445.579468,609.025452 1445.410522,608.968689 1445.406860,609.072021 
z"/>
<path fill="#000000" opacity="1.000000" stroke="none" 
	d="
M853.116882,770.059937 
	C853.082458,770.618591 852.734131,771.621155 852.231384,771.705688 
	C845.475403,772.841736 838.697937,773.849792 831.490845,774.858032 
	C838.280945,773.243347 845.506104,771.660217 853.116882,770.059937 
z"/>
<path fill="#000000" opacity="1.000000" stroke="none" 
	d="
M827.467224,774.715271 
	C823.898926,775.114319 819.958923,775.407227 815.579468,775.636230 
	C819.125244,775.251221 823.110352,774.930176 827.467224,774.715271 
z"/>
<path fill="#262228" opacity="1.000000" stroke="none" 
	d="
M1238.463623,701.022583 
	C1238.122314,692.804626 1238.093872,684.264282 1238.080322,675.236572 
	C1238.505737,678.951538 1239.156616,683.147888 1239.260986,687.357788 
	C1239.371216,691.798462 1238.959961,696.252075 1238.463623,701.022583 
z"/>
<path fill="#000000" opacity="1.000000" stroke="none" 
	d="
M994.473389,176.102402 
	C994.280945,176.379684 993.972900,176.591644 993.664917,176.803589 
	C993.575317,176.583878 993.485779,176.364166 993.396240,176.144440 
	C993.716736,176.108643 994.037292,176.072845 994.473389,176.102402 
z"/>
<path fill="#000000" opacity="1.000000" stroke="none" 
	d="
M752.983948,324.960022 
	C753.261108,324.795715 753.589172,324.693573 753.917114,324.591431 
	C753.742981,324.754822 753.568848,324.918213 753.265991,325.113647 
	C753.137390,325.145691 753.034790,325.022186 752.983948,324.960022 
z"/>
<path fill="#000000" opacity="1.000000" stroke="none" 
	d="
M1111.131958,184.184875 
	C1110.829346,184.336197 1110.442017,184.380508 1110.054810,184.424774 
	C1110.238525,184.258484 1110.422241,184.092209 1110.742065,183.894867 
	C1110.878052,183.863785 1111.047363,184.077850 1111.131958,184.184875 
z"/>
<path fill="#000000" opacity="1.000000" stroke="none" 
	d="
M919.975952,184.018311 
	C920.230225,184.067001 920.501038,184.083344 920.758789,184.150101 
	C920.823853,184.166946 920.847168,184.344833 920.889709,184.448715 
	C920.661804,184.365082 920.433960,184.281433 920.106567,184.086517 
	C920.007019,183.975235 919.987610,184.004639 919.975952,184.018311 
z"/>
<path fill="#000000" opacity="1.000000" stroke="none" 
	d="
M671.822632,452.814819 
	C671.699280,452.700226 672.052002,452.692352 672.052002,452.692352 
	C672.052002,452.692352 672.225952,452.991150 672.207520,453.076782 
	C672.189148,453.162445 671.946045,452.929382 671.822632,452.814819 
z"/>
<path fill="#000000" opacity="1.000000" stroke="none" 
	d="
M759.161011,440.180603 
	C759.259155,440.276459 758.961670,440.282013 758.961670,440.282013 
	C758.961670,440.282013 758.825928,440.027527 758.847412,439.958984 
	C758.868896,439.890472 759.062805,440.084717 759.161011,440.180603 
z"/>
<path fill="#000000" opacity="1.000000" stroke="none" 
	d="
M1171.522705,803.247559 
	C1158.418945,783.181030 1144.431396,764.346558 1125.108276,750.131348 
	C1117.943848,744.860718 1111.062622,739.205078 1103.357544,733.181824 
	C1106.520630,730.596985 1109.531616,728.382874 1112.249268,725.853577 
	C1115.689087,722.652161 1118.856812,719.160583 1122.203613,715.856628 
	C1125.487427,712.614563 1129.028564,709.615540 1132.138428,706.218323 
	C1138.480347,699.290649 1140.982666,690.414124 1144.178467,681.864258 
	C1147.568726,672.794312 1151.369263,663.877625 1155.001465,654.898376 
	C1155.312378,654.129822 1155.998535,653.399597 1156.012817,652.642212 
	C1156.155273,645.077026 1161.610962,642.071289 1167.432251,639.808472 
	C1174.021851,637.247070 1180.701050,636.795898 1187.730103,639.228149 
	C1200.154297,643.527527 1204.301392,653.826172 1205.981934,664.980286 
	C1207.543701,675.345276 1207.564819,686.046814 1207.222534,696.566345 
	C1206.843140,708.219971 1206.002319,719.960022 1204.014771,731.428894 
	C1202.325317,741.176514 1198.813599,750.620422 1195.922974,760.142578 
	C1194.491455,764.857544 1192.727173,769.478455 1190.946533,774.077271 
	C1190.121582,776.208130 1188.754395,778.125305 1187.881104,780.241699 
	C1185.413818,786.220642 1183.268677,792.340210 1180.604858,798.227112 
	C1179.222656,801.281738 1177.012207,803.961487 1174.799072,807.395386 
	C1173.291382,805.529236 1172.487793,804.534668 1171.522705,803.247559 
z"/>
<path fill="#000000" opacity="1.000000" stroke="none" 
	d="
M1411.982178,293.009827 
	C1411.974731,293.019012 1412.051270,293.004822 1412.029785,292.995789 
	C1412.008423,292.986755 1411.989502,293.000610 1411.982178,293.009827 
z"/>
<path fill="#000000" opacity="1.000000" stroke="none" 
	d="
M1445.408691,609.020386 
	C1445.410522,608.968689 1445.579468,609.025452 1445.579468,609.025452 
	C1445.579468,609.025452 1445.406860,609.072021 1445.408691,609.020386 
z"/>
</svg>